<svg fill="#000000" width="64px" height="64px" viewBox="0 0 24.00 24.00" xmlns="http://www.w3.org/2000/svg">
  <g id="SVGRepo_bgCarrier" stroke-width="0"></g>
  <g id="SVGRepo_tracerCarrier" stroke-linecap="round" stroke-linejoin="round"></g>
  <g id="SVGRepo_iconCarrier">
    <path d="M9.5 15.584V8.416a.5.5 0 01.77-.42l5.576 3.583a.5.5 0 010 .842l-5.576 3.584a.5.5 0 01-.77-.42z"></path>
    <path fill="#4fe64c" fill-rule="evenodd" d="M12 2.5a9.5 9.5 0 100 19 9.5 9.5 0 000-19zM9.5 15.584V8.416a.5.5 0 01.77-.42l5.576 3.583a.5.5 0 010 .842l-5.576 3.584a.5.5 0 01-.77-.42z"></path>
  </g>
</svg>
